<?xml version="1.0" standalone="no"?>
<!DOCTYPE svg PUBLIC "-//W3C//DTD SVG 20010904//EN"
 "http://www.w3.org/TR/2001/REC-SVG-20010904/DTD/svg10.dtd">
<svg version="1.0" xmlns="http://www.w3.org/2000/svg"
 width="786.000000pt" height="786.000000pt" viewBox="0 0 786.000000 786.000000"
 preserveAspectRatio="xMidYMid meet">
<metadata>
Created by potrace 1.14, written by Peter Selinger 2001-2017
</metadata>
<g transform="translate(0.000000,786.000000) scale(0.100000,-0.100000)"
fill="#000000" stroke="none">
<path d="M2613 7152 c-6 -4 -14 -43 -17 -87 -4 -44 -9 -87 -11 -95 -2 -8 -7
-44 -10 -80 -12 -124 -14 -145 -19 -165 -2 -11 -7 -39 -10 -61 l-7 -41 -112
-23 c-144 -28 -146 -29 -187 -36 -19 -4 -44 -8 -55 -11 -58 -12 -274 -53 -302
-58 -58 -9 -87 -14 -143 -25 -30 -6 -77 -13 -105 -16 -67 -8 -100 -25 -99 -49
1 -17 33 -276 49 -405 2 -19 7 -62 10 -95 4 -33 8 -73 9 -90 2 -16 7 -67 10
-112 4 -46 9 -91 10 -100 2 -10 7 -65 11 -123 4 -58 9 -112 10 -120 14 -76 18
-234 19 -923 1 -737 2 -795 18 -820 25 -37 72 -48 264 -62 45 -3 93 -8 105
-10 13 -2 60 -6 104 -10 44 -3 103 -8 130 -10 62 -6 130 -12 215 -20 36 -3 90
-8 120 -10 30 -3 80 -7 110 -10 30 -3 80 -7 110 -10 30 -2 84 -7 120 -10 76
-7 158 -14 215 -20 22 -2 78 -7 125 -10 47 -3 101 -8 120 -10 50 -6 211 -20
345 -30 44 -4 96 -8 115 -10 19 -2 76 -6 125 -10 50 -3 104 -8 120 -10 17 -2
74 -7 129 -10 149 -10 146 -9 121 -53 -17 -29 -19 -29 -89 -26 -39 2 -92 8
-118 12 -27 6 -48 6 -48 1 0 -5 10 -9 22 -9 33 0 138 -31 138 -41 0 -15 -204
-12 -320 5 -19 3 -62 8 -95 10 -76 7 -130 15 -177 27 -52 13 -50 36 2 29 10
-1 12 2 5 8 -10 10 -57 15 -255 29 -257 18 -291 10 -255 -58 9 -19 20 -47 24
-63 7 -32 -1 -30 161 -40 58 -4 119 -9 135 -11 27 -4 94 -9 255 -20 30 -2 82
-7 115 -10 69 -6 140 -12 240 -20 39 -3 97 -7 130 -10 112 -10 231 -20 368
-30 180 -15 293 -25 327 -30 27 -4 138 -12 284 -20 121 -8 170 -30 243 -113
32 -36 64 -75 72 -86 8 -12 17 -23 21 -26 10 -8 215 -264 225 -279 4 -8 10
-44 11 -80 1 -36 6 -113 10 -171 7 -107 7 -125 5 -172 l-1 -27 -1797 0 c-2255
0 -2558 -2 -2574 -18 -6 -6 -12 -27 -13 -47 -1 -19 -11 -45 -22 -57 -10 -11
-18 -30 -16 -41 2 -10 -2 -25 -8 -33 -6 -7 -10 -21 -8 -31 2 -14 -11 -20 -72
-33 -208 -46 -336 -200 -329 -400 7 -193 131 -347 314 -390 88 -20 98 -22 204
-25 159 -5 243 22 339 109 91 82 133 198 129 354 -2 71 -8 97 -32 149 -24 55
-27 69 -19 100 5 21 7 51 4 67 -5 22 -2 34 12 45 11 9 20 25 22 35 3 20 26 20
1753 23 l1750 2 7 -30 c3 -17 11 -29 17 -28 19 5 21 -19 2 -27 -10 -4 -40 -8
-67 -10 -61 -5 -157 -51 -210 -102 -22 -20 -52 -66 -68 -102 -96 -210 6 -448
224 -525 35 -12 78 -30 95 -39 46 -24 231 -34 303 -17 173 41 295 149 349 305
24 71 22 195 -4 260 -24 59 -48 108 -63 127 -11 13 -12 27 -4 62 5 25 7 56 5
69 -3 14 -1 33 5 43 11 23 5 44 -13 44 -35 0 -37 17 -50 430 -7 196 -9 218
-25 273 -10 39 -79 127 -249 322 -91 104 -91 105 -91 147 0 22 16 88 35 147
19 58 55 174 79 256 71 241 115 387 130 430 8 22 40 121 71 220 65 206 267
811 362 1085 35 102 80 232 100 290 37 109 50 133 63 125 5 -3 6 9 3 25 -3 22
5 51 28 98 18 37 34 78 36 91 16 94 132 222 186 205 52 -17 210 -32 292 -28
120 5 147 11 168 35 24 29 22 105 -3 147 -34 56 -88 66 -360 66 -166 0 -192
-3 -249 -23 -129 -45 -157 -69 -301 -265 -160 -216 -152 -206 -180 -210 -46
-7 -145 -20 -162 -20 -19 -1 -37 -16 -19 -16 7 0 9 -4 6 -10 -3 -5 -34 -10
-68 -9 -44 0 -56 3 -42 9 11 5 35 9 53 9 17 1 32 5 32 10 0 4 -11 6 -24 4 -28
-6 -36 12 -31 67 1 19 6 85 10 145 4 61 8 133 10 160 2 28 7 130 10 229 7 171
7 178 -11 173 -51 -15 -177 -37 -183 -32 -3 4 -7 19 -7 33 -1 15 -2 34 -3 44
-1 14 -16 12 -128 -18 -71 -19 -132 -35 -138 -37 -45 -14 -52 -21 -79 -95 -16
-42 -39 -99 -51 -127 -12 -27 -39 -92 -61 -142 -21 -51 -42 -93 -48 -93 -8 0
-2 230 9 345 7 72 15 188 21 310 3 66 7 142 8 169 5 73 -1 87 -33 81 -25 -4
-50 -6 -261 -21 -52 -3 -99 -8 -103 -11 -4 -3 -14 0 -22 7 -10 9 -12 27 -8 76
5 58 4 64 -13 65 -11 0 -66 2 -124 3 -233 8 -607 17 -820 21 -212 3 -442 10
-730 20 -118 4 -221 10 -370 19 -36 3 -71 2 -77 -2z m4040 -967 c26 -11 21
-21 -28 -55 -65 -45 -116 -114 -161 -219 -27 -62 -45 -91 -59 -95 -32 -8 -154
-10 -162 -3 -10 10 165 265 213 310 69 65 135 86 197 62z m-253 -421 c0 -7
-81 -217 -100 -259 -9 -22 -36 -89 -60 -150 -23 -60 -60 -152 -82 -203 -57
-132 -70 -107 -25 50 20 67 47 173 62 233 15 61 35 139 45 175 10 36 23 84 29
107 10 35 17 44 43 51 29 7 88 5 88 -4z m-148 -24 c-37 -165 -187 -669 -200
-671 -25 -4 -125 -3 -133 1 -5 4 5 55 21 115 17 61 32 117 34 125 2 8 12 47
22 85 20 84 39 122 110 229 85 128 94 137 123 134 17 -2 25 -8 23 -18z m-204
-14 c6 -6 -170 -250 -188 -261 -13 -8 -5 56 20 149 27 102 34 114 67 118 30 4
95 -1 101 -6z m-171 -20 c5 -5 -29 -117 -48 -161 -24 -54 -38 -47 -33 18 11
156 13 162 53 152 14 -4 27 -8 28 -9z m68 -403 c-7 -50 -46 -178 -65 -212 -6
-11 -12 -39 -14 -61 -6 -62 -29 -90 -74 -91 l-37 -1 33 -9 c18 -6 35 -16 38
-24 6 -15 -70 -243 -86 -259 -7 -7 -10 -2 -11 15 -2 46 2 164 6 179 2 8 7 51
10 95 3 44 8 89 10 100 2 11 4 29 4 41 1 11 31 66 69 120 119 176 129 185 117
107z m231 -205 c-24 -82 -57 -151 -67 -141 -8 8 4 44 62 182 18 42 21 14 5
-41z m23 -51 c-23 -73 -35 -97 -49 -97 -8 0 39 154 55 180 19 31 16 -13 -6
-83z m-203 -9 l61 -3 -9 -35 c-6 -19 -15 -41 -20 -47 -12 -15 -144 -18 -152
-4 -14 22 34 108 53 96 4 -2 34 -5 67 -7z m108 -35 c-20 -49 -34 -63 -34 -35
0 30 21 72 36 72 10 0 10 -8 -2 -37z m-87 -96 c3 -4 -41 -153 -93 -315 -43
-135 -37 -129 -136 -136 -51 -4 -58 -2 -58 14 0 10 25 99 55 198 30 99 55 186
55 194 0 7 7 23 15 35 13 19 22 20 87 17 40 -3 73 -6 75 -7z m31 -63 c-20 -53
-23 -56 -26 -30 -4 34 27 111 40 98 5 -5 -1 -34 -14 -68z m53 41 c-4 -5 -16
-35 -27 -65 -21 -62 -46 -108 -51 -93 -3 9 50 163 63 185 4 6 10 5 15 -3 4 -7
4 -18 0 -24z m16 -81 c-19 -54 -39 -100 -45 -102 -12 -4 4 62 39 155 39 103
44 54 6 -53z m-249 -373 c9 -3 -9 -65 -28 -95 -21 -34 -22 -35 -86 -33 l-66 2
5 40 c7 48 17 77 31 87 8 6 125 5 144 -1z m-4141 -178 c1 -10 5 -108 9 -219 6
-177 5 -201 -9 -207 -8 -3 -20 0 -25 6 -7 9 -10 363 -3 447 1 19 24 -3 28 -27z
m4093 17 c0 -14 -110 -284 -125 -307 -21 -32 -34 -21 -30 25 2 20 6 78 10 127
3 50 8 107 11 128 l6 38 64 -2 c35 -1 64 -5 64 -9z m-1268 -954 c16 -12 16
-14 -3 -34 -11 -13 -33 -23 -52 -23 -23 -1 -15 -4 26 -11 31 -6 57 -14 57 -18
0 -26 -124 -20 -134 6 -3 8 0 14 6 14 9 0 9 3 1 11 -9 9 -6 19 10 40 23 32 60
38 89 15z m253 -11 c44 -3 98 -7 120 -10 22 -2 72 -7 110 -9 39 -3 99 -8 135
-11 290 -24 283 -22 259 -67 -10 -19 -17 -20 -110 -14 -55 4 -105 9 -112 11
-18 6 -119 15 -227 20 -52 2 -109 7 -125 10 -17 3 -70 7 -119 10 -49 3 -93 8
-97 11 -5 2 -3 16 3 29 10 23 35 33 68 28 8 -1 51 -4 95 -8z m749 -92 c-14
-58 -38 -81 -50 -49 -8 20 23 76 41 76 12 0 14 -7 9 -27z m-119 -72 c34 -17
34 -28 2 -22 -5 1 -39 4 -75 7 -85 6 -112 12 -112 23 0 25 131 19 185 -8z"/>
<path d="M6812 5697 c20 -20 48 -53 62 -74 14 -21 26 -34 26 -29 0 21 -61 94
-105 125 -11 7 -3 -2 17 -22z"/>
<path d="M6973 5588 c-23 -6 -57 -24 -75 -41 -18 -16 -48 -36 -67 -44 -18 -8
-45 -25 -59 -39 -15 -13 -35 -24 -44 -24 -10 0 -18 -4 -18 -10 0 -5 -12 -21
-26 -36 -18 -17 -23 -28 -16 -33 8 -5 6 -23 -9 -61 -29 -77 -28 -136 6 -215
20 -48 25 -69 17 -77 -16 -16 36 -88 63 -88 25 0 100 -121 91 -146 -11 -29
223 -382 245 -368 6 3 26 -13 46 -35 46 -54 104 -84 172 -87 80 -4 113 12 333
160 47 32 95 97 109 150 19 70 -1 139 -73 247 -74 112 -97 156 -86 167 13 13
-9 52 -169 295 -130 197 -173 248 -236 277 -43 19 -141 23 -204 8z m-47 -180
c5 -7 9 -20 8 -28 -1 -8 -2 -20 -3 -26 0 -6 -12 -16 -25 -22 -19 -9 -28 -7
-45 9 -26 25 -26 34 -1 59 23 23 53 26 66 8z"/>
<path d="M3710 3322 c0 -4 10 -9 22 -9 18 -2 20 0 8 7 -18 12 -30 13 -30 2z"/>
<path d="M3985 3295 c23 -8 85 -10 85 -3 0 4 -21 8 -47 7 -27 0 -43 -2 -38 -4z"/>
<path d="M4086 3288 c3 -4 9 -8 15 -8 5 0 9 4 9 8 0 5 -7 9 -15 9 -8 0 -12 -4
-9 -9z"/>
</g>
</svg>
